<?xml version="1.0" standalone="no"?>
<!DOCTYPE svg PUBLIC "-//W3C//DTD SVG 20010904//EN"
 "http://www.w3.org/TR/2001/REC-SVG-20010904/DTD/svg10.dtd">
<svg version="1.0" xmlns="http://www.w3.org/2000/svg"
 width="200.000000pt" height="200.000000pt" viewBox="0 0 200.000000 200.000000"
 preserveAspectRatio="xMidYMid meet">
<metadata>
Created by potrace 1.10, written by Peter Selinger 2001-2011
</metadata>
<g transform="translate(0.000000,200.000000) scale(0.100000,-0.100000)"
fill="#000000" stroke="none">
<path d="M770 1593 c-8 -3 -32 -21 -52 -41 -30 -28 -42 -34 -65 -29 -35 7 -99
-20 -132 -57 -18 -19 -26 -41 -29 -81 -4 -45 -8 -55 -22 -55 -24 0 -77 -45
-95 -81 -19 -37 -19 -92 1 -131 9 -16 11 -28 6 -24 -11 7 -44 -28 -65 -69 -15
-31 -21 -68 -19 -115 2 -33 51 -108 75 -116 17 -5 19 -13 13 -51 -16 -116 71
-223 181 -223 33 0 41 -4 57 -34 23 -43 63 -73 120 -88 56 -15 112 0 162 44
66 58 64 38 65 572 2 480 1 485 -20 514 -41 59 -120 87 -181 65z m114 -58 c14
-10 31 -33 36 -54 8 -24 10 -189 8 -486 -3 -490 -3 -486 -61 -529 -22 -16 -43
-21 -88 -21 -53 1 -62 4 -94 35 -19 19 -35 40 -35 46 0 7 16 21 35 30 19 9 49
34 67 56 55 71 49 185 -15 252 -37 39 -58 51 -108 60 -45 8 -69 0 -69 -24 0
-14 11 -18 51 -22 134 -13 184 -185 79 -268 -52 -41 -138 -52 -191 -24 -19 10
-38 17 -42 16 -5 -1 -6 2 -3 7 3 5 -2 23 -10 41 -16 30 -15 71 1 125 5 16 -2
26 -32 45 -51 34 -77 87 -68 143 6 33 18 52 55 87 l48 45 -19 24 c-43 53 -16
140 53 169 23 10 28 8 33 -8 11 -34 81 -87 153 -114 55 -21 81 -38 112 -73 22
-25 40 -52 40 -59 0 -8 2 -14 4 -14 2 0 11 -3 19 -6 23 -9 26 26 6 67 -24 48
-76 91 -100 84 -10 -4 -27 -1 -36 5 -16 10 -16 11 -1 6 11 -3 15 -1 12 9 -6
14 62 42 73 31 4 -3 0 -6 -8 -6 -8 0 -23 -8 -34 -17 -19 -15 -19 -15 10 -8 36
8 95 62 95 87 0 28 -28 21 -66 -16 -19 -19 -49 -37 -67 -40 -73 -14 -156 36
-180 108 -36 105 35 174 145 142 22 -6 27 -4 33 15 5 13 21 36 37 51 33 30 78
32 122 3z"/>
<path d="M1109 1582 c-82 -55 -79 -34 -79 -564 0 -437 2 -476 19 -513 22 -50
69 -91 122 -107 74 -22 181 24 210 91 11 25 19 29 63 33 67 6 118 40 152 102
22 41 26 57 21 100 -5 50 -4 54 28 79 33 26 65 97 65 144 0 59 -65 155 -101
148 -12 -3 -16 1 -12 12 4 11 8 12 13 2 13 -20 33 29 32 78 -2 68 -33 111
-100 140 -24 10 -32 19 -28 30 12 30 -14 90 -54 127 -40 36 -56 41 -117 37
-23 -2 -35 3 -42 17 -30 56 -138 81 -192 44z m109 -37 c27 -11 44 -27 56 -52
14 -29 20 -34 39 -28 71 22 109 11 140 -42 26 -45 16 -99 -29 -152 -30 -34
-42 -41 -72 -41 -20 0 -50 7 -66 15 -16 9 -36 13 -43 11 -23 -9 -14 -34 17
-49 80 -40 139 -29 199 39 21 24 46 44 55 44 25 0 73 -52 80 -86 3 -21 -2 -45
-14 -70 -11 -21 -20 -41 -20 -45 0 -4 15 -17 33 -28 77 -47 88 -159 23 -218
-33 -30 -41 -33 -101 -33 -135 0 -205 65 -205 190 0 48 -2 51 -22 48 -28 -4
-35 -49 -18 -116 12 -47 57 -115 70 -107 5 3 19 1 31 -4 l24 -8 -23 -7 c-14
-5 -29 -3 -37 4 -46 38 -188 -111 -146 -153 13 -13 24 -4 50 44 40 74 75 83
256 65 l81 -9 -6 -51 c-3 -28 -12 -62 -20 -76 -8 -14 -13 -28 -12 -32 1 -5 -1
-7 -6 -6 -4 1 -20 -4 -35 -10 -16 -7 -52 -12 -81 -12 -53 0 -53 0 -71 -42 -10
-24 -18 -49 -18 -55 0 -7 -3 -10 -9 -7 -5 3 -15 1 -22 -5 -7 -6 -33 -14 -57
-17 -58 -8 -112 15 -139 58 -19 32 -20 49 -20 514 l0 480 28 26 c25 23 45 35
64 37 4 1 25 -6 46 -14z"/>
</g>
</svg>
